<?xml version="1.0" encoding="utf-8"?>
<svg xmlns="http://www.w3.org/2000/svg" xmlns:xlink="http://www.w3.org/1999/xlink" style="margin: auto; background: none; display: block; shape-rendering: auto;" width="24px" height="24px" viewBox="0 0 100 100" preserveAspectRatio="xMidYMid">
<g transform="rotate(0 50 50)">
  <rect x="47" y="1.5" rx="3" ry="8.17" width="6" height="19" fill="#ffffff">
    <animate attributeName="opacity" values="1;0" keyTimes="0;1" dur="1.1627906976744184s" begin="-1.1143410852713178s" repeatCount="indefinite"></animate>
  </rect>
</g><g transform="rotate(15 50 50)">
  <rect x="47" y="1.5" rx="3" ry="8.17" width="6" height="19" fill="#ffffff">
    <animate attributeName="opacity" values="1;0" keyTimes="0;1" dur="1.1627906976744184s" begin="-1.065891472868217s" repeatCount="indefinite"></animate>
  </rect>
</g><g transform="rotate(30 50 50)">
  <rect x="47" y="1.5" rx="3" ry="8.17" width="6" height="19" fill="#ffffff">
    <animate attributeName="opacity" values="1;0" keyTimes="0;1" dur="1.1627906976744184s" begin="-1.0174418604651163s" repeatCount="indefinite"></animate>
  </rect>
</g><g transform="rotate(45 50 50)">
  <rect x="47" y="1.5" rx="3" ry="8.17" width="6" height="19" fill="#ffffff">
    <animate attributeName="opacity" values="1;0" keyTimes="0;1" dur="1.1627906976744184s" begin="-0.9689922480620154s" repeatCount="indefinite"></animate>
  </rect>
</g><g transform="rotate(60 50 50)">
  <rect x="47" y="1.5" rx="3" ry="8.17" width="6" height="19" fill="#ffffff">
    <animate attributeName="opacity" values="1;0" keyTimes="0;1" dur="1.1627906976744184s" begin="-0.9205426356589147s" repeatCount="indefinite"></animate>
  </rect>
</g><g transform="rotate(75 50 50)">
  <rect x="47" y="1.5" rx="3" ry="8.17" width="6" height="19" fill="#ffffff">
    <animate attributeName="opacity" values="1;0" keyTimes="0;1" dur="1.1627906976744184s" begin="-0.872093023255814s" repeatCount="indefinite"></animate>
  </rect>
</g><g transform="rotate(90 50 50)">
  <rect x="47" y="1.5" rx="3" ry="8.17" width="6" height="19" fill="#ffffff">
    <animate attributeName="opacity" values="1;0" keyTimes="0;1" dur="1.1627906976744184s" begin="-0.8236434108527132s" repeatCount="indefinite"></animate>
  </rect>
</g><g transform="rotate(105 50 50)">
  <rect x="47" y="1.5" rx="3" ry="8.17" width="6" height="19" fill="#ffffff">
    <animate attributeName="opacity" values="1;0" keyTimes="0;1" dur="1.1627906976744184s" begin="-0.7751937984496123s" repeatCount="indefinite"></animate>
  </rect>
</g><g transform="rotate(120 50 50)">
  <rect x="47" y="1.5" rx="3" ry="8.17" width="6" height="19" fill="#ffffff">
    <animate attributeName="opacity" values="1;0" keyTimes="0;1" dur="1.1627906976744184s" begin="-0.7267441860465116s" repeatCount="indefinite"></animate>
  </rect>
</g><g transform="rotate(135 50 50)">
  <rect x="47" y="1.5" rx="3" ry="8.17" width="6" height="19" fill="#ffffff">
    <animate attributeName="opacity" values="1;0" keyTimes="0;1" dur="1.1627906976744184s" begin="-0.6782945736434108s" repeatCount="indefinite"></animate>
  </rect>
</g><g transform="rotate(150 50 50)">
  <rect x="47" y="1.5" rx="3" ry="8.17" width="6" height="19" fill="#ffffff">
    <animate attributeName="opacity" values="1;0" keyTimes="0;1" dur="1.1627906976744184s" begin="-0.6298449612403101s" repeatCount="indefinite"></animate>
  </rect>
</g><g transform="rotate(165 50 50)">
  <rect x="47" y="1.5" rx="3" ry="8.17" width="6" height="19" fill="#ffffff">
    <animate attributeName="opacity" values="1;0" keyTimes="0;1" dur="1.1627906976744184s" begin="-0.5813953488372093s" repeatCount="indefinite"></animate>
  </rect>
</g><g transform="rotate(180 50 50)">
  <rect x="47" y="1.5" rx="3" ry="8.17" width="6" height="19" fill="#ffffff">
    <animate attributeName="opacity" values="1;0" keyTimes="0;1" dur="1.1627906976744184s" begin="-0.5329457364341085s" repeatCount="indefinite"></animate>
  </rect>
</g><g transform="rotate(195 50 50)">
  <rect x="47" y="1.5" rx="3" ry="8.17" width="6" height="19" fill="#ffffff">
    <animate attributeName="opacity" values="1;0" keyTimes="0;1" dur="1.1627906976744184s" begin="-0.4844961240310077s" repeatCount="indefinite"></animate>
  </rect>
</g><g transform="rotate(210 50 50)">
  <rect x="47" y="1.5" rx="3" ry="8.17" width="6" height="19" fill="#ffffff">
    <animate attributeName="opacity" values="1;0" keyTimes="0;1" dur="1.1627906976744184s" begin="-0.436046511627907s" repeatCount="indefinite"></animate>
  </rect>
</g><g transform="rotate(225 50 50)">
  <rect x="47" y="1.5" rx="3" ry="8.17" width="6" height="19" fill="#ffffff">
    <animate attributeName="opacity" values="1;0" keyTimes="0;1" dur="1.1627906976744184s" begin="-0.38759689922480617s" repeatCount="indefinite"></animate>
  </rect>
</g><g transform="rotate(240 50 50)">
  <rect x="47" y="1.5" rx="3" ry="8.17" width="6" height="19" fill="#ffffff">
    <animate attributeName="opacity" values="1;0" keyTimes="0;1" dur="1.1627906976744184s" begin="-0.3391472868217054s" repeatCount="indefinite"></animate>
  </rect>
</g><g transform="rotate(255 50 50)">
  <rect x="47" y="1.5" rx="3" ry="8.17" width="6" height="19" fill="#ffffff">
    <animate attributeName="opacity" values="1;0" keyTimes="0;1" dur="1.1627906976744184s" begin="-0.29069767441860467s" repeatCount="indefinite"></animate>
  </rect>
</g><g transform="rotate(270 50 50)">
  <rect x="47" y="1.5" rx="3" ry="8.17" width="6" height="19" fill="#ffffff">
    <animate attributeName="opacity" values="1;0" keyTimes="0;1" dur="1.1627906976744184s" begin="-0.24224806201550386s" repeatCount="indefinite"></animate>
  </rect>
</g><g transform="rotate(285 50 50)">
  <rect x="47" y="1.5" rx="3" ry="8.17" width="6" height="19" fill="#ffffff">
    <animate attributeName="opacity" values="1;0" keyTimes="0;1" dur="1.1627906976744184s" begin="-0.19379844961240308s" repeatCount="indefinite"></animate>
  </rect>
</g><g transform="rotate(300 50 50)">
  <rect x="47" y="1.5" rx="3" ry="8.17" width="6" height="19" fill="#ffffff">
    <animate attributeName="opacity" values="1;0" keyTimes="0;1" dur="1.1627906976744184s" begin="-0.14534883720930233s" repeatCount="indefinite"></animate>
  </rect>
</g><g transform="rotate(315 50 50)">
  <rect x="47" y="1.5" rx="3" ry="8.17" width="6" height="19" fill="#ffffff">
    <animate attributeName="opacity" values="1;0" keyTimes="0;1" dur="1.1627906976744184s" begin="-0.09689922480620154s" repeatCount="indefinite"></animate>
  </rect>
</g><g transform="rotate(330 50 50)">
  <rect x="47" y="1.5" rx="3" ry="8.17" width="6" height="19" fill="#ffffff">
    <animate attributeName="opacity" values="1;0" keyTimes="0;1" dur="1.1627906976744184s" begin="-0.04844961240310077s" repeatCount="indefinite"></animate>
  </rect>
</g><g transform="rotate(345 50 50)">
  <rect x="47" y="1.5" rx="3" ry="8.17" width="6" height="19" fill="#ffffff">
    <animate attributeName="opacity" values="1;0" keyTimes="0;1" dur="1.1627906976744184s" begin="0s" repeatCount="indefinite"></animate>
  </rect>
</g>
<!-- [ldio] generated by https://loading.io/ --></svg>